<?xml version="1.0" encoding="utf-8" ?>
<svg xmlns="http://www.w3.org/2000/svg" xmlns:xlink="http://www.w3.org/1999/xlink" width="1024" height="1024">
	<path transform="scale(2 2)" d="M237.202 177.83C251.927 178.578 257.348 181.28 274.323 177.83C278.193 193.918 279.526 208.658 285.018 225.22C288.232 234.911 292.923 244.033 296.789 253.464C312.202 291.061 315.248 318.933 315.245 358.097L315.256 425.842C315.289 449.373 315.136 454.396 291.62 454.304L276.625 454.281L229.474 454.262C218.754 454.247 198.983 457.385 196.676 442.005C196.092 438.11 196.488 433.762 196.494 429.81L196.514 362.035C196.506 318.79 198.862 292.446 216.108 250.497C219.47 242.32 223.627 234.617 226.431 226.195C232.081 209.229 233.466 194.428 237.202 177.83Z"/>
	<path transform="scale(2 2)" d="M238.282 73.706C243.57 73.3651 271.686 73.214 274.837 74.0829C280.894 75.7527 278.099 111.72 277.696 112.643C276.882 114.507 274.762 115.351 273.046 116.172C270.117 124.48 274.358 153.388 273.213 164.333L272.685 164.639C261.78 167.525 250.191 166.84 239.254 164.639C239.105 159.229 239.246 153.785 239.248 148.371L239.254 116.058C237.295 115.539 235.006 114.755 234.359 112.589C233.376 109.302 233.404 82.6119 233.878 78.3699C234.171 75.7481 235.821 74.4156 238.282 73.706Z"/>
</svg>
